<?xml version="1.0" encoding="UTF-8" standalone="no"?>
<!-- Created with Inkscape (http://www.inkscape.org/) -->

<svg
   width="394.52219"
   height="177.80852"
   viewBox="0 0 104.38399 47.04517"
   version="1.1"
   id="svg5"
   inkscape:version="1.2.2 (b0a8486, 2022-12-01)"
   sodipodi:docname="logo-thick.svg"
   inkscape:export-filename="logo.png"
   inkscape:export-xdpi="96"
   inkscape:export-ydpi="96"
   xmlns:inkscape="http://www.inkscape.org/namespaces/inkscape"
   xmlns:sodipodi="http://sodipodi.sourceforge.net/DTD/sodipodi-0.dtd"
   xmlns="http://www.w3.org/2000/svg"
   xmlns:svg="http://www.w3.org/2000/svg">
  <sodipodi:namedview
     id="namedview7"
     pagecolor="#ffffff"
     bordercolor="#666666"
     borderopacity="1.0"
     inkscape:showpageshadow="2"
     inkscape:pageopacity="0.0"
     inkscape:pagecheckerboard="false"
     inkscape:deskcolor="#d1d1d1"
     inkscape:document-units="mm"
     showgrid="false"
     showguides="true"
     inkscape:lockguides="false"
     inkscape:zoom="0.73541153"
     inkscape:cx="131.21905"
     inkscape:cy="177.45166"
     inkscape:window-width="1714"
     inkscape:window-height="1097"
     inkscape:window-x="1572"
     inkscape:window-y="43"
     inkscape:window-maximized="0"
     inkscape:current-layer="g1561" />
  <defs
     id="defs2" />
  <g
     inkscape:label="AN"
     inkscape:groupmode="layer"
     id="layer1"
     style="display:inline"
     transform="translate(9.939303,0.09946383)">
    <path
       id="path1026"
       style="color:#000000;display:inline;fill:#a52a2a;fill-opacity:1;stroke:#a52a2a;stroke-width:3.75;stroke-linejoin:round;stroke-dasharray:none;stroke-opacity:1"
       d="m 42.056354,1.7755366 c -5.397199,-0.00132 -9.69767,3.017027 -13.550853,6.8406679 -3.853184,3.8236405 -7.45067,8.7171625 -11.200867,13.5456855 -3.750198,4.828523 -7.6509442,9.582871 -11.7983754,13.026982 -4.1474294,3.444113 -10.2919548,6.067468 -11.819046,6.387206 -1.5270911,0.319742 -2.2548923,1.410918 -1.4521078,2.70397 0.5463112,0.879948 3.7598645,0.542249 5.4008333,0.0059 C 1.856408,42.906392 3.9952673,41.991745 8.6682098,38.111236 13.341154,34.230726 18.019915,29.262201 21.810174,24.3821 25.600432,19.501998 29.168302,14.70229 32.637677,11.259515 36.107052,7.8167383 39.28429,5.995591 42.05377,5.9962705 c 0.883916,2.169e-4 2.409822,0.4980013 4.258784,1.7550603 1.848958,1.2570587 3.944735,3.1706112 6.096527,5.4622002 4.303588,4.583177 8.865485,10.66095 13.189116,16.227691 4.32363,5.56674 8.273177,10.5788 12.159465,13.431996 1.943145,1.426602 4.223519,2.625885 6.942729,2.05543 1.359603,-0.285226 2.47895,-1.035587 3.256261,-1.924946 0.777313,-0.889361 1.317048,-1.944847 1.76475,-3.222026 2.460988,-7.020501 3.064335,-16.299653 2.78213,-23.926834 C 92.150631,6.3169793 92.377982,8.573257 91.95447,4.9517606 91.813804,3.7488919 91.18345,1.9081071 88.986305,1.9222298 87.180604,1.9338423 86.624,3.5773154 86.678952,4.6817513 c 0.045,0.9043402 0.424369,3.768422 0.5271,11.2195997 -0.03448,2.709461 0.09158,28.164536 -5.856877,23.867406 C 78.522211,37.693222 74.394742,32.745101 70.103737,27.220366 65.812732,21.695632 61.220245,15.55122 56.65107,10.6852 54.366484,8.2521895 52.096106,6.1330965 49.752266,4.5395798 47.408425,2.9460631 44.916246,1.7762384 42.056354,1.7755366 Z m 0.153737,18.8767554 c -2.893279,0 -5.238699,2.345419 -5.238699,5.238698 0,2.89328 2.34542,5.238698 5.238699,5.238698 2.893279,0 5.238698,-2.345418 5.238698,-5.238698 0,-2.893279 -2.345419,-5.238698 -5.238698,-5.238698 z" />
  </g>
  <g
     inkscape:label="N"
     inkscape:groupmode="layer"
     id="g1561"
     style="display:inline"
     transform="translate(9.939303,0.09946383)">
    <path
       id="path1559"
       style="color:#000000;display:inline;fill:#a52a2a;fill-opacity:1;stroke:#a52a2a;stroke-width:3.75;stroke-linejoin:round;stroke-dasharray:none;stroke-opacity:1"
       d="m 42.056354,1.7755366 c 0,0 -0.04524,4.0915287 -0.0026,4.2207339 0.883916,2.169e-4 2.409822,0.4980013 4.258783,1.7550603 1.848959,1.2570587 3.944735,3.1706112 6.096528,5.4622002 4.303587,4.583177 8.865485,10.66095 13.189116,16.227691 4.32363,5.56674 8.273176,10.5788 12.159465,13.431996 1.943145,1.426602 4.223519,2.625885 6.942729,2.05543 1.359602,-0.285226 2.47895,-1.035587 3.256261,-1.924946 0.777313,-0.889361 1.317048,-1.944847 1.76475,-3.222026 2.460988,-7.020501 3.064335,-16.299653 2.78213,-23.926834 C 92.15059,6.3169793 92.377941,8.573257 91.954429,4.9517606 91.813762,3.7488919 91.183409,1.9081071 88.986264,1.9222298 c -1.805702,0.011613 -2.362305,1.6550856 -2.307353,2.7595215 0.045,0.9043402 0.424369,3.768422 0.5271,11.2195997 -0.03448,2.709461 0.09157,28.164536 -5.856877,23.867406 C 78.522211,37.693222 74.394742,32.745101 70.103737,27.220366 65.812732,21.695632 61.220245,15.55122 56.65107,10.6852 54.366484,8.2521895 52.096106,6.1330965 49.752266,4.5395798 47.408425,2.9460631 44.916246,1.7762384 42.056354,1.7755366 Z m 0.153737,18.8767554 c -2.893279,0 -5.238699,2.345419 -5.238699,5.238698 0,2.89328 2.34542,5.238698 5.238699,5.238698 2.893279,0 5.238698,-2.345418 5.238698,-5.238698 0,-2.893279 -2.345419,-5.238698 -5.238698,-5.238698 z"
       sodipodi:nodetypes="ccsssssssssssccssscsssss" />
  </g>
  <g
     inkscape:label="A"
     inkscape:groupmode="layer"
     id="g1557"
     style="display:inline"
     transform="translate(9.939303,0.09946383)">
    <path
       id="path1555"
       style="color:#000000;display:inline;fill:#a52a2a;fill-opacity:1;stroke:#a52a2a;stroke-width:3.75;stroke-linejoin:round;stroke-dasharray:none;stroke-opacity:1"
       d="m 42.056354,1.7755366 c -5.397199,-0.00132 -9.69767,3.017027 -13.550853,6.8406679 -3.853184,3.8236405 -7.45067,8.7171625 -11.200867,13.5456855 -3.750198,4.828523 -7.6509442,9.582871 -11.7983754,13.026982 -4.1474294,3.444113 -10.2919548,6.067468 -11.819046,6.387206 -1.5270911,0.319742 -2.2548923,1.410918 -1.4521078,2.70397 0.5463112,0.879948 3.7598645,0.542249 5.4008333,0.0059 C 1.856408,42.906392 3.9952673,41.991745 8.6682098,38.111236 13.341154,34.230726 18.019915,29.262201 21.810174,24.3821 25.600432,19.501998 29.168302,14.70229 32.637677,11.259515 36.107052,7.8167383 39.28429,5.995591 42.05377,5.9962705 c 0.883916,2.169e-4 2.409822,0.4980013 4.258784,1.7550603 1.848958,1.2570587 3.944735,3.1706112 6.096527,5.4622002 4.303588,4.583177 8.865485,10.66095 13.189116,16.227691 4.32363,5.56674 8.273177,10.5788 12.159465,13.431996 1.943145,1.426602 4.218243,2.600132 6.942729,2.05543 1.426646,-0.285226 4.078401,-1.801012 3.703215,-3.444591 -0.432479,-1.894566 -4.298236,0.109175 -7.054431,-1.7153 C 78.522211,37.693222 74.394742,32.745101 70.103737,27.220366 65.812732,21.695632 61.220245,15.55122 56.65107,10.6852 54.366484,8.2521895 52.096106,6.1330965 49.752266,4.5395798 47.408425,2.9460631 44.916246,1.7762384 42.056354,1.7755366 Z m 0.153737,18.8767554 c -2.893279,0 -5.238699,2.345419 -5.238699,5.238698 0,2.89328 2.34542,5.238698 5.238699,5.238698 2.893279,0 5.238698,-2.345418 5.238698,-5.238698 0,-2.893279 -2.345419,-5.238698 -5.238698,-5.238698 z"
       sodipodi:nodetypes="sssssscsssssssssscsssssssss" />
  </g>
</svg>
