<?xml version="1.0" encoding="UTF-8" standalone="no"?>
<!-- Created with Inkscape (http://www.inkscape.org/) -->

<svg
   width="320"
   height="180"
   viewBox="0 0 84.666665 47.625"
   version="1.1"
   id="svg5"
   inkscape:version="1.2.2 (b0a8486, 2022-12-01)"
   sodipodi:docname="logo.svg"
   inkscape:export-filename="logo.png"
   inkscape:export-xdpi="96"
   inkscape:export-ydpi="96"
   xmlns:inkscape="http://www.inkscape.org/namespaces/inkscape"
   xmlns:sodipodi="http://sodipodi.sourceforge.net/DTD/sodipodi-0.dtd"
   xmlns="http://www.w3.org/2000/svg"
   xmlns:svg="http://www.w3.org/2000/svg">
  <sodipodi:namedview
     id="namedview7"
     pagecolor="#ffffff"
     bordercolor="#666666"
     borderopacity="1.0"
     inkscape:showpageshadow="2"
     inkscape:pageopacity="0.0"
     inkscape:pagecheckerboard="0"
     inkscape:deskcolor="#d1d1d1"
     inkscape:document-units="mm"
     showgrid="false"
     showguides="true"
     inkscape:lockguides="false"
     inkscape:zoom="0.73541153"
     inkscape:cx="263.11798"
     inkscape:cy="177.45166"
     inkscape:window-width="1920"
     inkscape:window-height="1201"
     inkscape:window-x="1366"
     inkscape:window-y="42"
     inkscape:window-maximized="0"
     inkscape:current-layer="g1561" />
  <defs
     id="defs2" />
  <g
     inkscape:label="AN"
     inkscape:groupmode="layer"
     id="layer1"
     style="display:inline">
    <path
       id="path1026"
       style="color:#000000;display:inline;fill:#a52a2a;fill-opacity:1;stroke:none;stroke-width:0.894;stroke-linejoin:round;stroke-dasharray:none;stroke-opacity:1"
       d="m 42.095622,6.1050537 c -4.317759,-0.00106 -7.758136,2.4136216 -10.840682,5.4725343 -3.082547,3.058912 -5.960536,6.97373 -8.960694,10.836548 -3.000158,3.862819 -6.120755,7.666297 -9.4387,10.421586 -3.3179435,2.75529 -8.2335638,4.853974 -9.4552368,5.109765 -1.2216729,0.255793 -1.8039138,1.128734 -1.1616862,2.163176 0.4370489,0.703958 3.0078916,0.433799 4.3206666,0.0047 3.3763759,-1.103625 5.0874634,-1.835343 8.8258174,-4.93975 3.738355,-3.104408 7.481364,-7.079228 10.513571,-10.983309 3.032207,-3.904081 5.886503,-7.743848 8.662003,-10.498068 2.7755,-2.754221 5.31729,-4.2111388 7.532874,-4.2105952 0.707133,1.735e-4 1.927858,0.398401 3.407027,1.4040482 1.479167,1.005647 3.155788,2.536489 4.877222,4.36976 3.44287,3.666542 7.092388,8.52876 10.551293,12.982153 3.458904,4.453392 6.618541,8.46304 9.727572,10.745597 1.554516,1.141281 3.378815,2.100708 5.554183,1.644344 1.087682,-0.228181 1.98316,-0.82847 2.605009,-1.539957 0.62185,-0.711489 1.053638,-1.555878 1.4118,-2.577621 1.96879,-5.616401 2.451468,-13.039722 2.225704,-19.141467 -0.282321,-7.6302902 -0.10044,-5.825268 -0.43925,-8.7224651 -0.112533,-0.962295 -0.616816,-2.4349228 -2.374532,-2.4236247 -1.444561,0.00929 -1.889844,1.3240685 -1.845882,2.2076172 0.036,0.7234722 0.339495,3.0147376 0.42168,8.9756796 -0.02758,2.167569 0.07326,22.531629 -4.685502,19.093925 C 71.268308,34.839202 67.966333,30.880705 64.533529,26.460917 61.100725,22.04113 57.426735,17.1256 53.771395,13.232784 51.943726,11.286376 50.127424,9.5911016 48.252352,8.3162882 46.377279,7.0414749 44.383536,6.1056151 42.095622,6.1050537 Z m 0.12299,15.1014043 c -2.314623,0 -4.190959,1.876335 -4.190959,4.190958 0,2.314624 1.876336,4.190959 4.190959,4.190959 2.314623,0 4.190958,-1.876335 4.190958,-4.190959 0,-2.314623 -1.876335,-4.190958 -4.190958,-4.190958 z" />
  </g>
  <g
     inkscape:label="N"
     inkscape:groupmode="layer"
     id="g1561"
     style="display:inline">
    <path
       id="path1559"
       style="color:#000000;display:inline;fill:#a52a2a;fill-opacity:1;stroke:none;stroke-width:0.894;stroke-linejoin:round;stroke-dasharray:none;stroke-opacity:1"
       d="m 42.095622,6.1050537 c 0,0 -0.03619,3.2732229 -0.0021,3.3765871 0.707133,1.735e-4 1.927858,0.398401 3.407027,1.4040482 1.479167,1.005647 3.155788,2.536489 4.877222,4.36976 3.44287,3.666542 7.092388,8.52876 10.551293,12.982153 3.458904,4.453392 6.618541,8.46304 9.727572,10.745597 1.554516,1.141281 3.378815,2.100708 5.554183,1.644344 1.087682,-0.228181 1.98316,-0.82847 2.605009,-1.539957 0.62185,-0.711489 1.053638,-1.555878 1.4118,-2.577621 1.96879,-5.616401 2.451468,-13.039722 2.225704,-19.141467 -0.282321,-7.6302902 -0.10044,-5.825268 -0.43925,-8.7224651 -0.112533,-0.962295 -0.616816,-2.4349228 -2.374532,-2.4236247 -1.444561,0.00929 -1.889844,1.3240685 -1.845882,2.2076172 0.036,0.7234722 0.339495,3.0147376 0.42168,8.9756796 -0.02758,2.167569 0.07326,22.531629 -4.685502,19.093925 C 71.268308,34.839202 67.966333,30.880705 64.533529,26.460917 61.100725,22.04113 57.426735,17.1256 53.771395,13.232784 51.943726,11.286376 50.127424,9.5911016 48.252352,8.3162882 46.377279,7.0414749 44.383536,6.1056151 42.095622,6.1050537 Z m 0.12299,15.1014043 c -2.314623,0 -4.190959,1.876335 -4.190959,4.190958 0,2.314624 1.876336,4.190959 4.190959,4.190959 2.314623,0 4.190958,-1.876335 4.190958,-4.190959 0,-2.314623 -1.876335,-4.190958 -4.190958,-4.190958 z"
       sodipodi:nodetypes="ccsssssssssssccssscsssss" />
  </g>
  <g
     inkscape:label="A"
     inkscape:groupmode="layer"
     id="g1557"
     style="display:inline">
    <path
       id="path1555"
       style="color:#000000;display:inline;fill:#a52a2a;fill-opacity:1;stroke:none;stroke-width:0.894;stroke-linejoin:round;stroke-dasharray:none;stroke-opacity:1"
       d="m 42.095622,6.1050537 c -4.317759,-0.00106 -7.758136,2.4136216 -10.840682,5.4725343 -3.082547,3.058912 -5.960536,6.97373 -8.960694,10.836548 -3.000158,3.862819 -6.120755,7.666297 -9.4387,10.421586 -3.3179435,2.75529 -8.2335638,4.853974 -9.4552368,5.109765 -1.2216729,0.255793 -1.8039138,1.128734 -1.1616862,2.163176 0.4370489,0.703958 3.0078916,0.433799 4.3206666,0.0047 3.3763759,-1.103625 5.0874634,-1.835343 8.8258174,-4.93975 3.738355,-3.104408 7.481364,-7.079228 10.513571,-10.983309 3.032207,-3.904081 5.886503,-7.743848 8.662003,-10.498068 2.7755,-2.754221 5.31729,-4.2111388 7.532874,-4.2105952 0.707133,1.735e-4 1.927858,0.398401 3.407027,1.4040482 1.479167,1.005647 3.155788,2.536489 4.877222,4.36976 3.44287,3.666542 7.092388,8.52876 10.551293,12.982153 3.458904,4.453392 6.618541,8.46304 9.727572,10.745597 1.554516,1.141281 3.374594,2.080105 5.554183,1.644344 1.141317,-0.228181 3.262721,-1.44081 2.962572,-2.755673 -0.345983,-1.515653 -3.438589,0.08734 -5.643545,-1.37224 C 71.268308,34.839202 67.966333,30.880705 64.533529,26.460917 61.100725,22.04113 57.426735,17.1256 53.771395,13.232784 51.943726,11.286376 50.127424,9.5911016 48.252352,8.3162882 46.377279,7.0414749 44.383536,6.1056151 42.095622,6.1050537 Z m 0.12299,15.1014043 c -2.314623,0 -4.190959,1.876335 -4.190959,4.190958 0,2.314624 1.876336,4.190959 4.190959,4.190959 2.314623,0 4.190958,-1.876335 4.190958,-4.190959 0,-2.314623 -1.876335,-4.190958 -4.190958,-4.190958 z"
       sodipodi:nodetypes="sssssscsssssssssscsssssssss" />
  </g>
</svg>
